<svg width="46" height="37" viewBox="0 0 46 37" fill="none" xmlns="http://www.w3.org/2000/svg">
<path d="M0 37V24.838C0 21.6404 0.28607 18.6713 0.858209 15.9306C1.54478 13.1898 2.63184 10.5062 4.1194 7.87963C5.72139 5.13889 7.78109 2.51235 10.2985 0L16.9925 4.96759C15.0473 7.13734 13.5025 9.1929 12.3582 11.1343C11.2139 13.0756 10.4129 14.9599 9.95522 16.787C9.49751 18.6142 9.26866 20.4985 9.26866 22.4398L5.14925 19.5278H17.5075V37H0ZM28.4925 37V24.838C28.4925 21.6404 28.7786 18.6713 29.3507 15.9306C30.0373 13.1898 31.1244 10.5062 32.6119 7.87963C34.2139 5.13889 36.2736 2.51235 38.791 0L45.4851 4.96759C43.5398 7.13734 41.995 9.1929 40.8507 11.1343C39.7065 13.0756 38.9055 14.9599 38.4478 16.787C37.9901 18.6142 37.7612 20.4985 37.7612 22.4398L33.6418 19.5278H46V37H28.4925Z" fill="white"/>
</svg>
