<svg width="22" height="15" viewBox="0 0 22 15" fill="none" xmlns="http://www.w3.org/2000/svg">
<path d="M1 6.36401C0.447715 6.36401 0 6.81173 0 7.36401C0 7.9163 0.447715 8.36401 1 8.36401V7.36401V6.36401ZM21.7071 8.07112C22.0976 7.6806 22.0976 7.04743 21.7071 6.65691L15.3431 0.292946C14.9526 -0.0975785 14.3195 -0.0975785 13.9289 0.292946C13.5384 0.68347 13.5384 1.31664 13.9289 1.70716L19.5858 7.36401L13.9289 13.0209C13.5384 13.4114 13.5384 14.0446 13.9289 14.4351C14.3195 14.8256 14.9526 14.8256 15.3431 14.4351L21.7071 8.07112ZM1 7.36401V8.36401H21V7.36401V6.36401H1V7.36401Z" fill="white"/>
</svg>
