<svg width="419" height="222" viewBox="0 0 419 222" fill="none" xmlns="http://www.w3.org/2000/svg">
<g filter="url(#filter0_d_802_133)">
<path d="M364.075 92.9393C359.583 68.9617 339.357 50.856 315.069 50.856C304.766 50.856 295.183 54.1171 287.231 59.7088C272.626 32.1601 244.517 13.5043 212.217 13.5043C187.709 13.5043 165.612 24.2576 149.997 41.4731C145.466 39.0023 140.264 37.6019 134.742 37.6019C120.548 37.6019 108.524 46.8648 104.373 59.6688C104.003 59.6688 103.643 59.6388 103.273 59.6388C71.2125 59.6388 45.0742 84.9268 43.6938 116.647C28.519 121.528 17.5055 136.273 17.5055 153.708C17.5055 175.125 34.1308 192.491 54.6472 192.491H343.288C370.867 192.491 393.224 169.143 393.224 140.354C393.224 119.308 381.27 101.182 364.075 92.9393Z" fill="white"/>
<path d="M364.075 92.9393C359.583 68.9617 339.357 50.856 315.069 50.856C304.766 50.856 295.183 54.1171 287.231 59.7088C272.626 32.1601 244.517 13.5043 212.217 13.5043C187.709 13.5043 165.612 24.2576 149.997 41.4731C145.466 39.0023 140.264 37.6019 134.742 37.6019C120.548 37.6019 108.524 46.8648 104.373 59.6688C104.003 59.6688 103.643 59.6388 103.273 59.6388C71.2125 59.6388 45.0742 84.9268 43.6938 116.647C28.519 121.528 17.5055 136.273 17.5055 153.708C17.5055 175.125 34.1308 192.491 54.6472 192.491H343.288C370.867 192.491 393.224 169.143 393.224 140.354C393.224 119.308 381.27 101.182 364.075 92.9393Z" stroke="#05AC8F" stroke-width="3"/>
</g>
<defs>
<filter id="filter0_d_802_133" x="0" y="0" width="418.732" height="222" filterUnits="userSpaceOnUse" color-interpolation-filters="sRGB">
<feFlood flood-opacity="0" result="BackgroundImageFix"/>
<feColorMatrix in="SourceAlpha" type="matrix" values="0 0 0 0 0 0 0 0 0 0 0 0 0 0 0 0 0 0 127 0" result="hardAlpha"/>
<feOffset dx="4" dy="8"/>
<feGaussianBlur stdDeviation="10"/>
<feComposite in2="hardAlpha" operator="out"/>
<feColorMatrix type="matrix" values="0 0 0 0 0 0 0 0 0 0 0 0 0 0 0 0 0 0 0.35 0"/>
<feBlend mode="normal" in2="BackgroundImageFix" result="effect1_dropShadow_802_133"/>
<feBlend mode="normal" in="SourceGraphic" in2="effect1_dropShadow_802_133" result="shape"/>
</filter>
</defs>
</svg>
