<svg width="40" height="40" viewBox="0 0 40 40" fill="none" xmlns="http://www.w3.org/2000/svg">
<path d="M22.4092 40V24.5862H27.1408L27.8552 19.1196H22.5881V14.9519C22.5881 14.4274 23.2179 13.6758 23.7022 13.4715C23.9121 13.3831 24.5824 13.205 24.7756 13.205H28.1236V8.18656C25.069 8.12084 21.4956 7.5019 19.0589 9.79725C16.4635 12.2431 17.0205 15.9652 16.9632 19.2092H12.3212V24.6758H16.9632V40C9.89753 38.9593 3.71562 33.8464 1.24787 27.142C-2.18718 17.8053 1.67964 7.39317 10.2661 2.58261C24.7148 -5.51144 42.0332 6.56512 39.8052 22.9122C38.5933 31.8032 31.3416 39.0919 22.4104 39.9988L22.4092 40Z" fill="white"/>
</svg>
