<svg width="27" height="25" viewBox="0 0 27 25" fill="none" xmlns="http://www.w3.org/2000/svg">
<path d="M21.375 0H5.625C4.13371 0.00180438 2.704 0.601002 1.6495 1.66616C0.594992 2.73132 0.00178634 4.17546 0 5.68182V19.3182C0.00178634 20.8245 0.594992 22.2687 1.6495 23.3338C2.704 24.399 4.13371 24.9982 5.625 25H21.375C22.8663 24.9982 24.296 24.399 25.3505 23.3338C26.405 22.2687 26.9982 20.8245 27 19.3182V5.68182C26.9982 4.17546 26.405 2.73132 25.3505 1.66616C24.296 0.601002 22.8663 0.00180438 21.375 0ZM5.625 2.27273H21.375C22.0486 2.27407 22.7065 2.47899 23.2638 2.86114C23.8212 3.24329 24.2526 3.78517 24.5025 4.41705L15.8873 13.1205C15.2532 13.7583 14.3948 14.1164 13.5 14.1164C12.6052 14.1164 11.7468 13.7583 11.1128 13.1205L2.4975 4.41705C2.74742 3.78517 3.17882 3.24329 3.73618 2.86114C4.29354 2.47899 4.95137 2.27407 5.625 2.27273ZM21.375 22.7273H5.625C4.72989 22.7273 3.87145 22.3681 3.23851 21.7288C2.60558 21.0894 2.25 20.2223 2.25 19.3182V7.38636L9.522 14.7273C10.578 15.7912 12.0085 16.3887 13.5 16.3887C14.9915 16.3887 16.422 15.7912 17.478 14.7273L24.75 7.38636V19.3182C24.75 20.2223 24.3944 21.0894 23.7615 21.7288C23.1286 22.3681 22.2701 22.7273 21.375 22.7273Z" fill="white"/>
</svg>
