<svg width="40" height="40" viewBox="0 0 40 40" fill="none" xmlns="http://www.w3.org/2000/svg">
<path d="M18.7791 0.0369164C34.8938 -0.915709 45.5188 16.7628 36.9656 30.57C29.0358 43.3712 10.2879 43.0757 2.72208 30.0707C-4.76152 17.2076 4.03179 0.9074 18.7791 0.0369164ZM14.6248 7.79766C10.6529 8.07076 8.05165 10.3302 7.6866 14.3711C8.34199 21.0331 4.81847 31.6634 14.7614 32.2555C20.9812 31.6901 31.3606 34.82 32.2978 25.7343C31.6403 19.0041 35.2065 8.32251 25.1515 7.76993C22.0475 7.59924 17.716 7.58431 14.6248 7.7966V7.79766Z" fill="white"/>
<path d="M19.8999 10.0325L20.4304 10.0976C24.5186 10.1147 29.5781 9.20473 30.0648 14.7711C29.8471 18.2147 30.3498 22.0017 30.0509 25.4047C29.5727 30.8623 23.9838 29.9865 19.9671 29.9854C18.3137 29.9854 16.3796 30.0409 14.7571 29.9385C11.8559 29.7571 10.1993 28.1591 9.92389 25.2575C10.115 21.8364 9.68052 18.1603 9.92389 14.7701C10.337 9.01058 15.8032 10.2534 19.8999 10.0315V10.0325ZM26.204 12.2728C25.8934 12.3378 25.4536 12.7037 25.3309 12.9971C24.8185 14.2239 26.1421 15.3547 27.2597 14.609C28.4413 13.8196 27.6471 11.9698 26.204 12.2728ZM19.0972 13.5561C14.1892 14.1097 11.8015 20.1957 14.882 24.0531C18.1002 28.0844 24.6573 26.9568 26.1869 22.0156C27.6279 17.3613 23.8888 13.0152 19.0972 13.5561Z" fill="white"/>
<path d="M19.2562 15.8752C24.4748 15.168 26.0055 22.2044 21.5341 23.9165C18.0746 25.2404 14.7432 21.863 16.1213 18.4163C16.6187 17.1724 17.9092 16.0577 19.2562 15.8752Z" fill="white"/>
</svg>
